<?xml version="1.0" encoding="utf-8"?>
<!-- Generator: Adobe Illustrator 16.0.0, SVG Export Plug-In . SVG Version: 6.00 Build 0)  -->
<!DOCTYPE svg PUBLIC "-//W3C//DTD SVG 1.1//EN" "http://www.w3.org/Graphics/SVG/1.1/DTD/svg11.dtd">
<svg version="1.1" id="Layer_1" xmlns="http://www.w3.org/2000/svg" xmlns:xlink="http://www.w3.org/1999/xlink" x="0px" y="0px"
	 width="84.188px" height="86px" viewBox="0 0 84.188 86" enable-background="new 0 0 84.188 86" xml:space="preserve">
<path fill="#00AA63" d="M82.111,15.476c-1.82-2.287-4.543-3.598-7.466-3.598h-7.671V9.825h0.78c2.708,0,4.912-2.204,4.912-4.913
	C72.667,2.204,70.463,0,67.754,0h-51.32c-2.709,0-4.912,2.204-4.912,4.912c0,2.709,2.203,4.913,4.912,4.913h0.78v2.053H9.542
	c-2.922,0-5.643,1.311-7.465,3.598c-1.815,2.277-2.483,5.208-1.834,8.041c1.287,5.623,3.7,10.497,6.978,14.095
	c3.529,3.873,8.023,6.347,13.362,7.368c3.453,5.923,9.281,10.298,16.17,11.812c-0.509,13.427-3.336,16.691-4.03,17.294h-2.57
	c-5.505,0-10.372,4.028-12.402,10.262C17.482,85.177,18.13,86,18.986,86h29.58c0.71,0,1.283-0.586,1.263-1.301
	c-0.021-0.691-0.623-1.224-1.315-1.224h-27.72c1.92-4.223,5.456-6.866,9.36-6.866h23.883c3.903,0,7.439,2.644,9.358,6.866h-9.646
	c-0.698,0-1.263,0.565-1.263,1.262c0,0.697,0.564,1.263,1.263,1.263h11.487c0.868,0,1.457-0.868,1.191-1.682
	c-2.034-6.218-6.896-10.233-12.392-10.233h-2.571c-0.692-0.603-3.521-3.867-4.029-17.294c6.889-1.514,12.717-5.889,16.17-11.812
	c5.339-1.021,9.834-3.495,13.361-7.368c0.47-0.514,0.433-1.313-0.083-1.783c-0.514-0.469-1.313-0.431-1.783,0.084
	c-2.718,2.984-6.087,5.039-10.037,6.136c0.479-1.146,0.873-2.335,1.178-3.56c2.569-1.023,4.804-2.564,6.648-4.59
	c3.335-3.662,4.93-8.335,5.68-11.613c0.272-1.187-0.009-2.417-0.771-3.374c-0.77-0.965-1.918-1.518-3.152-1.518h-7.671v-2.992h7.671
	c2.149,0,4.151,0.965,5.491,2.647c1.333,1.673,1.824,3.825,1.348,5.904c-0.687,2.998-1.709,5.76-3.041,8.209
	c-0.308,0.566-0.129,1.292,0.405,1.652c0.609,0.409,1.463,0.198,1.813-0.446c1.44-2.651,2.547-5.629,3.283-8.851
	C84.595,20.684,83.926,17.752,82.111,15.476 M17.392,35.46c-1.594-0.834-3.01-1.925-4.227-3.262
	c-2.966-3.256-4.403-7.494-5.085-10.475c-0.1-0.435,0.004-0.885,0.285-1.238c0.287-0.36,0.717-0.567,1.177-0.567h7.672v12.571
	C17.214,33.495,17.276,34.485,17.392,35.46 M9.087,35.912c-2.986-3.278-5.193-7.759-6.383-12.959
	c-0.477-2.079,0.014-4.231,1.347-5.904c1.34-1.682,3.342-2.647,5.491-2.647h7.672v2.991H9.542c-1.233,0-2.382,0.554-3.152,1.519
	c-0.763,0.957-1.044,2.187-0.771,3.374c0.75,3.277,2.344,7.951,5.679,11.612c1.846,2.027,4.08,3.568,6.649,4.591
	c0.304,1.225,0.699,2.414,1.178,3.56C15.175,40.951,11.805,38.897,9.087,35.912 M48.296,74.085H35.892
	c1.415-2.454,2.979-7.308,3.371-16.877c0.93,0.105,1.874,0.162,2.831,0.162c0.958,0,1.903-0.057,2.831-0.162
	C45.318,66.777,46.882,71.631,48.296,74.085 M42.094,54.846c-12.327,0-22.355-10.03-22.355-22.357V9.825h6.236
	c0.697,0,1.262-0.565,1.262-1.262c0-0.698-0.565-1.262-1.262-1.262h-9.541c-1.316,0-2.388-1.071-2.388-2.389
	c0-1.316,1.072-2.388,2.388-2.388h51.32c1.316,0,2.388,1.072,2.388,2.388c0,1.318-1.07,2.389-2.388,2.389h-36.73
	c-0.697,0-1.262,0.564-1.262,1.262c0,0.697,0.565,1.262,1.262,1.262h33.427v22.664C64.451,44.815,54.421,54.846,42.094,54.846
	 M74.646,19.918c0.461,0,0.892,0.207,1.179,0.567c0.28,0.353,0.384,0.803,0.284,1.238c-0.683,2.981-2.119,7.219-5.085,10.475
	c-1.217,1.337-2.634,2.428-4.227,3.262c0.117-0.975,0.178-1.965,0.178-2.971V19.918H74.646z"/>
<path fill="#00AA63" d="M51.517,24.798l-4.649-0.676c-0.085-0.013-0.158-0.067-0.196-0.143l-2.079-4.214
	c-0.473-0.957-1.43-1.551-2.497-1.552c-1.068,0-2.026,0.594-2.498,1.552l-2.079,4.214c-0.038,0.076-0.112,0.13-0.197,0.142
	l-4.649,0.676c-1.057,0.154-1.918,0.879-2.248,1.895c-0.33,1.016-0.06,2.109,0.705,2.855l3.364,3.28
	c0.062,0.059,0.09,0.145,0.076,0.23l-0.795,4.631c-0.181,1.053,0.244,2.096,1.108,2.724c0.863,0.628,1.987,0.709,2.933,0.212
	l4.159-2.187c0.075-0.04,0.166-0.04,0.241,0l4.159,2.187c0.934,0.49,2.08,0.408,2.933-0.212c0.864-0.628,1.289-1.671,1.108-2.724
	l-0.795-4.632c-0.013-0.084,0.014-0.17,0.075-0.229l3.365-3.28c0.765-0.746,1.034-1.839,0.704-2.855
	C53.435,25.676,52.573,24.951,51.517,24.798 M51.298,27.739l-3.365,3.28c-0.655,0.64-0.955,1.562-0.801,2.465l0.795,4.631
	c0.036,0.21-0.188,0.375-0.378,0.274l-4.159-2.186c-0.804-0.423-1.787-0.423-2.592,0l-4.159,2.186
	c-0.189,0.1-0.413-0.064-0.377-0.274l0.795-4.631c0.154-0.903-0.145-1.825-0.802-2.465l-3.364-3.28
	c-0.154-0.149-0.067-0.413,0.143-0.443l4.651-0.676c0.907-0.132,1.691-0.701,2.096-1.524l2.079-4.213
	c0.095-0.192,0.374-0.192,0.467,0l2.079,4.213c0.407,0.823,1.189,1.392,2.098,1.524l4.649,0.676
	C51.364,27.326,51.451,27.59,51.298,27.739"/>
</svg>
