<svg version="1.1" id="Layer_1" xmlns="http://www.w3.org/2000/svg" xmlns:xlink="http://www.w3.org/1999/xlink" x="0px" y="0px"
	 width="47.285px" height="50px" viewBox="0 0 47.285 50" fill="#efc900" xml:space="preserve">
<g>
	<defs>
		<rect id="SVGID_1_" width="47.285" height="50"/>
	</defs>
	<clipPath id="SVGID_2_">
		<use xlink:href="#SVGID_1_"  overflow="visible"/>
	</clipPath>
	<path clip-path="url(#SVGID_2_)" d="M45.958,5.248H12.991C12.383,2.254,9.735,0,6.562,0C2.937,0,0,2.937,0,6.561
		C0,6.564,0,6.567,0,6.57C0,6.572,0,6.573,0,6.575v0.651C0,7.412,0.04,7.59,0.11,7.751c0.56,3.056,3.235,5.371,6.452,5.371
		c2.928,0,5.409-1.92,6.251-4.569h33.146c0.729,0,1.327-0.597,1.327-1.327V6.575C47.285,5.846,46.688,5.248,45.958,5.248"/>
	<path clip-path="url(#SVGID_2_)" d="M45.958,23.348h-4.061c-0.692-2.881-3.284-5.021-6.378-5.021c-3.092,0-5.684,2.14-6.377,5.021
		H1.327C0.598,23.348,0,23.945,0,24.675v0.651c0,0.729,0.598,1.326,1.327,1.326h27.875c0.771,2.766,3.307,4.796,6.317,4.796
		c3.012,0,5.548-2.03,6.32-4.796h4.118c0.729,0,1.327-0.597,1.327-1.326v-0.651C47.285,23.945,46.688,23.348,45.958,23.348"/>
	<path clip-path="url(#SVGID_2_)" d="M45.958,41.899H23.347c-0.694-2.881-3.285-5.021-6.378-5.021c-3.094,0-5.685,2.141-6.378,5.021
		H1.327C0.598,41.899,0,42.497,0,43.227v0.65c0,0.73,0.598,1.327,1.327,1.327h9.322C11.421,47.97,13.957,50,16.969,50
		c3.011,0,5.548-2.03,6.318-4.796h22.671c0.729,0,1.327-0.597,1.327-1.327v-0.65C47.285,42.497,46.688,41.899,45.958,41.899"/>
</g>
</svg>
