<svg version="1.1" id="Layer_1" xmlns="http://www.w3.org/2000/svg" xmlns:xlink="http://www.w3.org/1999/xlink" x="0px" y="0px"
	 width="74.373px" height="82.646px" viewBox="0 0 74.373 82.646" fill="#a6a6a6" xml:space="preserve">
<g>
	<defs>
		<rect id="SVGID_1_" width="74.373" height="82.646"/>
	</defs>
	<clipPath id="SVGID_2_">
		<use xlink:href="#SVGID_1_"  overflow="visible"/>
	</clipPath>
	<path clip-path="url(#SVGID_2_)" d="M58.98,40.589h5.765c1.304,0,2.364-1.06,2.364-2.363v-5.765c0-1.304-1.061-2.364-2.364-2.364
		H58.98c-1.303,0-2.363,1.06-2.363,2.364v5.765C56.617,39.529,57.678,40.589,58.98,40.589 M59.038,32.519h5.648v5.649h-5.648V32.519
		z M58.98,55.924h5.765c1.304,0,2.364-1.062,2.364-2.363v-5.766c0-1.304-1.061-2.363-2.364-2.363H58.98
		c-1.303,0-2.363,1.06-2.363,2.363v5.766C56.617,54.863,57.678,55.924,58.98,55.924 M59.038,47.853h5.648v5.65h-5.648V47.853z
		 M42.529,40.589h5.765c1.304,0,2.364-1.06,2.364-2.363v-5.765c0-1.304-1.061-2.364-2.364-2.364h-5.765
		c-1.303,0-2.363,1.06-2.363,2.364v5.765C40.166,39.529,41.227,40.589,42.529,40.589 M42.587,32.519h5.649v5.649h-5.649V32.519z
		 M15.393,60.048H9.627c-1.303,0-2.363,1.059-2.363,2.362v5.766c0,1.303,1.06,2.363,2.363,2.363h5.766
		c1.302,0,2.363-1.061,2.363-2.363v-5.766C17.756,61.107,16.695,60.048,15.393,60.048 M15.335,68.118h-5.65v-5.648h5.65V68.118z
		 M15.393,30.097H9.627c-1.303,0-2.363,1.06-2.363,2.364v5.765c0,1.303,1.06,2.363,2.363,2.363h5.766
		c1.302,0,2.363-1.06,2.363-2.363v-5.765C17.756,31.157,16.695,30.097,15.393,30.097 M15.335,38.168h-5.65v-5.649h5.65V38.168z
		 M42.529,55.564h5.765c1.304,0,2.364-1.06,2.364-2.363v-5.765c0-1.303-1.061-2.364-2.364-2.364h-5.765
		c-1.303,0-2.363,1.062-2.363,2.364v5.765C40.166,54.504,41.227,55.564,42.529,55.564 M42.587,47.493h5.649v5.65h-5.649V47.493z
		 M68.311,5.532h-5.175v-1.85C63.136,1.651,61.484,0,59.454,0h-0.556c-2.03,0-3.682,1.651-3.682,3.682v1.85H19.156v-1.85
		C19.156,1.651,17.505,0,15.475,0h-0.556c-2.03,0-3.682,1.651-3.682,3.682v1.85H6.061C2.719,5.532,0,8.252,0,11.594v64.999
		c0,3.338,2.716,6.053,6.053,6.053H68.32c3.337,0,6.053-2.715,6.053-6.053V11.594C74.373,8.252,71.653,5.532,68.311,5.532
		 M57.638,3.682c0-0.696,0.565-1.261,1.261-1.261h0.556c0.695,0,1.26,0.565,1.26,1.261v1.85h-3.076V3.682z M13.658,3.682
		c0-0.696,0.566-1.261,1.261-1.261h0.556c0.695,0,1.26,0.565,1.26,1.261v1.85h-3.076L13.658,3.682L13.658,3.682z M71.951,76.593
		c0,2.003-1.629,3.632-3.632,3.632H6.053c-2.002,0-3.632-1.629-3.632-3.632v-0.008c1.015,0.765,2.275,1.219,3.64,1.219h49.083
		c1.62,0,3.143-0.631,4.287-1.776l12.52-12.52V76.593z M58.196,73.839c0.095-0.393,0.146-0.801,0.146-1.222v-8.081
		c0-1.522,1.24-2.764,2.764-2.764h8.08c0.422,0,0.83-0.051,1.222-0.146L58.196,73.839z M71.951,22.833H20.366
		c-0.668,0-1.21,0.542-1.21,1.211s0.542,1.211,1.21,1.211h51.585v31.334c0,1.522-1.239,2.764-2.765,2.764h-8.08
		c-2.858,0-5.185,2.326-5.185,5.184v8.081c0,1.525-1.24,2.766-2.764,2.766H6.061c-2.006,0-3.64-1.635-3.64-3.642V25.255h13.103
		c0.668,0,1.21-0.542,1.21-1.211s-0.542-1.211-1.21-1.211H2.421V11.594c0-2.007,1.633-3.64,3.64-3.64h5.176v3.56
		c0,2.029,1.652,3.68,3.682,3.68c0.668,0,1.21-0.542,1.21-1.21c0-0.669-0.542-1.211-1.21-1.211c-0.695,0-1.261-0.565-1.261-1.259
		v-3.56h41.559v3.56c0,2.029,1.651,3.68,3.682,3.68c0.668,0,1.21-0.542,1.21-1.21c0-0.669-0.542-1.211-1.21-1.211
		c-0.695,0-1.261-0.565-1.261-1.259v-3.56h10.673c2.008,0,3.641,1.633,3.641,3.64V22.833z M15.393,45.072H9.627
		c-1.303,0-2.363,1.062-2.363,2.364v5.765c0,1.304,1.06,2.363,2.363,2.363h5.766c1.302,0,2.363-1.06,2.363-2.363v-5.765
		C17.756,46.133,16.695,45.072,15.393,45.072 M15.335,53.144h-5.65v-5.65h5.65V53.144z M26.078,40.589h5.766
		c1.302,0,2.363-1.06,2.363-2.363v-5.765c0-1.304-1.061-2.364-2.363-2.364h-5.766c-1.303,0-2.363,1.06-2.363,2.364v5.765
		C23.715,39.529,24.775,40.589,26.078,40.589 M26.136,32.519h5.65v5.649h-5.65V32.519z M42.586,68.118
		c-0.03-0.641-0.561-1.151-1.21-1.151c-0.668,0-1.21,0.542-1.21,1.21c0,1.303,1.06,2.363,2.363,2.363h5.765
		c1.304,0,2.364-1.061,2.364-2.363v-5.766c0-1.304-1.061-2.362-2.364-2.362h-5.765c-1.304,0-2.363,1.059-2.363,2.362v1.663
		c0,0.668,0.542,1.21,1.21,1.21c0.669,0,1.211-0.542,1.211-1.21v-1.604h5.649v5.648H42.586z M26.078,55.564h5.766
		c1.302,0,2.363-1.06,2.363-2.363v-5.765c0-1.303-1.061-2.364-2.363-2.364h-5.766c-1.303,0-2.363,1.062-2.363,2.364v5.765
		C23.715,54.504,24.775,55.564,26.078,55.564 M26.136,47.493h5.65v5.65h-5.65V47.493z M26.078,70.54h5.766
		c1.302,0,2.363-1.061,2.363-2.363v-5.766c0-1.304-1.061-2.362-2.363-2.362h-5.766c-1.303,0-2.363,1.059-2.363,2.362v5.766
		C23.715,69.479,24.775,70.54,26.078,70.54 M26.136,62.469h5.65v5.648h-5.65V62.469z"/>
</g>
</svg>
