<?xml version="1.0" encoding="utf-8"?>
<!-- Generator: Adobe Illustrator 16.0.0, SVG Export Plug-In . SVG Version: 6.00 Build 0)  -->
<!DOCTYPE svg PUBLIC "-//W3C//DTD SVG 1.1//EN" "http://www.w3.org/Graphics/SVG/1.1/DTD/svg11.dtd">
<svg version="1.1" id="Layer_1" xmlns="http://www.w3.org/2000/svg" xmlns:xlink="http://www.w3.org/1999/xlink" x="0px" y="0px"
	 width="55px" height="55px" viewBox="0 0 55 55" enable-background="new 0 0 55 55" xml:space="preserve">
<path fill="#696B69" d="M39.656,18.774c0.839,0.839,0.839,2.2,0,3.039L25.243,36.226c-0.839,0.839-2.199,0.839-3.038,0l-6.861-6.861
	c-0.839-0.839-0.839-2.199,0-3.038c0.838-0.839,2.199-0.839,3.038,0l5.342,5.343l12.894-12.895
	C37.457,17.936,38.817,17.936,39.656,18.774 M55,27.5C55,42.7,42.698,55,27.5,55C12.3,55,0,42.698,0,27.5C0,12.3,12.302,0,27.5,0
	C42.7,0,55,12.302,55,27.5 M50.703,27.5c0-12.825-10.379-23.203-23.203-23.203C14.675,4.297,4.297,14.676,4.297,27.5
	c0,12.825,10.379,23.203,23.203,23.203C40.325,50.703,50.703,40.324,50.703,27.5"/>
</svg>
