<?xml version="1.0" encoding="utf-8"?>
<!-- Generator: Adobe Illustrator 16.0.0, SVG Export Plug-In . SVG Version: 6.00 Build 0)  -->
<!DOCTYPE svg PUBLIC "-//W3C//DTD SVG 1.1//EN" "http://www.w3.org/Graphics/SVG/1.1/DTD/svg11.dtd">
<svg version="1.1" id="Layer_1" xmlns="http://www.w3.org/2000/svg" xmlns:xlink="http://www.w3.org/1999/xlink" x="0px" y="0px"
	 width="80.8px" height="101px" viewBox="0 0 80.8 101" enable-background="new 0 0 80.8 101" xml:space="preserve">
<path fill="#EFC900" d="M60.106,0.493C59.791,0.178,59.364,0,58.916,0H11.784C5.279,0.008,0.007,5.279,0,11.783v77.434
	C0.007,95.722,5.279,100.992,11.784,101h57.233c6.505-0.008,11.775-5.278,11.783-11.783V21.884c0-0.447-0.178-0.875-0.493-1.19
	L60.106,0.493z M60.6,5.747L75.053,20.2h-6.036c-4.646-0.005-8.411-3.77-8.417-8.417V5.747z M11.784,3.366h45.45v8.417
	c0.008,6.505,5.278,11.777,11.783,11.784h8.417V70.7H3.367V11.783C3.372,7.137,7.137,3.372,11.784,3.366 M69.017,97.634H11.784
	c-4.647-0.006-8.412-3.771-8.417-8.417v-15.15h74.067v15.15C77.428,93.863,73.663,97.628,69.017,97.634"/>
<path fill="#EFC900" d="M43.767,90.9h-5.05V79.116c0-0.93-0.754-1.683-1.683-1.683c-0.93,0-1.684,0.753-1.684,1.683v13.467
	c0,0.93,0.754,1.684,1.684,1.684h6.733c0.931,0,1.685-0.754,1.685-1.684S44.697,90.9,43.767,90.9"/>
<path fill="#EFC900" d="M31.053,77.611c-0.832-0.416-1.843-0.079-2.259,0.753l-1.86,3.722l-1.861-3.722
	c-0.423-0.829-1.437-1.158-2.265-0.735c-0.819,0.417-1.151,1.415-0.747,2.24l2.99,5.98l-2.99,5.98
	c-0.422,0.829-0.093,1.843,0.735,2.265s1.842,0.093,2.265-0.735l0.012-0.023l1.861-3.722l1.86,3.722
	c0.409,0.835,1.418,1.18,2.253,0.771s1.18-1.418,0.771-2.253l-0.012-0.023l-2.99-5.98l2.99-5.98
	C32.221,79.038,31.884,78.027,31.053,77.611"/>
<path fill="#EFC900" d="M53.866,80.8h3.367c0.93,0,1.683-0.754,1.683-1.684s-0.753-1.683-1.683-1.683h-3.367
	c-2.789,0-5.05,2.261-5.05,5.05s2.261,5.05,5.05,5.05c0.931,0,1.685,0.754,1.685,1.684S54.797,90.9,53.866,90.9H50.5
	c-0.93,0-1.684,0.753-1.684,1.683s0.754,1.684,1.684,1.684h3.366c2.789,0,5.05-2.261,5.05-5.05s-2.261-5.05-5.05-5.05
	c-0.93,0-1.683-0.754-1.683-1.684S52.937,80.8,53.866,80.8"/>
<path fill="#EFC900" d="M15.15,60.6h50.5c0.929,0,1.683-0.753,1.683-1.683V28.616c0-0.929-0.754-1.682-1.683-1.682h-50.5
	c-0.93,0-1.683,0.753-1.683,1.682v30.301C13.467,59.847,14.22,60.6,15.15,60.6 M16.833,50.5H30.3v6.733H16.833V50.5z M47.133,47.134
	H33.666v-6.733h13.467V47.134z M33.666,30.3h13.467v6.733H33.666V30.3z M50.5,40.4h13.467v6.733H50.5V40.4z M47.133,57.233H33.666
	V50.5h13.467V57.233z M30.3,47.134H16.833v-6.733H30.3V47.134z M50.5,50.5h13.467v6.733H50.5V50.5z M63.967,37.033H50.5V30.3h13.467
	V37.033z M30.3,37.033H16.833V30.3H30.3V37.033z"/>
</svg>
