<?xml version="1.0" encoding="utf-8"?>
<!-- Generator: Adobe Illustrator 16.0.0, SVG Export Plug-In . SVG Version: 6.00 Build 0)  -->
<!DOCTYPE svg PUBLIC "-//W3C//DTD SVG 1.1//EN" "http://www.w3.org/Graphics/SVG/1.1/DTD/svg11.dtd">
<svg version="1.1" id="Layer_1" xmlns="http://www.w3.org/2000/svg" xmlns:xlink="http://www.w3.org/1999/xlink" x="0px" y="0px"
	 width="53.604px" height="66px" viewBox="0 0 53.604 66" enable-background="new 0 0 53.604 66" xml:space="preserve">
<g>
	<defs>
		<rect id="SVGID_1_" width="53.604" height="66"/>
	</defs>
	<clipPath id="SVGID_2_">
		<use xlink:href="#SVGID_1_"  overflow="visible"/>
	</clipPath>
	<path clip-path="url(#SVGID_2_)" d="M35.922,23.912c-0.854,0-1.546,0.692-1.546,1.546v29.213c0,0.853,0.691,1.546,1.546,1.546
		c0.854,0,1.545-0.693,1.545-1.546V25.458C37.467,24.604,36.775,23.912,35.922,23.912"/>
	<path clip-path="url(#SVGID_2_)" d="M17.683,23.912c-0.854,0-1.546,0.692-1.546,1.546v29.213c0,0.853,0.692,1.546,1.546,1.546
		s1.545-0.693,1.545-1.546V25.458C19.228,24.604,18.537,23.912,17.683,23.912"/>
	<path clip-path="url(#SVGID_2_)" d="M4.39,19.649V57.73c0,2.251,0.825,4.365,2.267,5.882C8.093,65.133,10.09,65.996,12.18,66
		h29.244c2.091-0.004,4.088-0.867,5.523-2.388c1.441-1.517,2.267-3.631,2.267-5.882V19.649c2.866-0.761,4.725-3.53,4.34-6.471
		c-0.384-2.94-2.889-5.14-5.854-5.14h-7.914V6.106c0.01-1.625-0.633-3.185-1.783-4.333C36.852,0.626,35.289-0.013,33.665,0H19.94
		c-1.625-0.013-3.188,0.626-4.338,1.773c-1.15,1.148-1.793,2.708-1.783,4.333v1.932H5.905c-2.966,0-5.471,2.2-5.855,5.14
		C-0.333,16.119,1.524,18.888,4.39,19.649 M41.424,62.908H12.18c-2.643,0-4.699-2.27-4.699-5.178V19.785h38.642V57.73
		C46.123,60.639,44.067,62.908,41.424,62.908 M16.91,6.106c-0.01-0.805,0.306-1.58,0.877-2.148c0.571-0.568,1.347-0.88,2.153-0.866
		h13.725c0.805-0.014,1.581,0.298,2.152,0.866c0.57,0.567,0.887,1.343,0.877,2.148v1.932H16.91V6.106z M5.905,11.129h41.794
		c1.537,0,2.783,1.246,2.783,2.782c0,1.537-1.246,2.782-2.783,2.782H5.905c-1.537,0-2.782-1.245-2.782-2.782
		C3.123,12.375,4.368,11.129,5.905,11.129"/>
	<path clip-path="url(#SVGID_2_)" d="M26.802,23.912c-0.854,0-1.545,0.692-1.545,1.546v29.213c0,0.853,0.691,1.546,1.545,1.546
		c0.854,0,1.546-0.693,1.546-1.546V25.458C28.348,24.604,27.656,23.912,26.802,23.912"/>
</g>
</svg>
