<?xml version="1.0" encoding="utf-8"?>
<!-- Generator: Adobe Illustrator 16.0.0, SVG Export Plug-In . SVG Version: 6.00 Build 0)  -->
<!DOCTYPE svg PUBLIC "-//W3C//DTD SVG 1.1//EN" "http://www.w3.org/Graphics/SVG/1.1/DTD/svg11.dtd">
<svg version="1.1" id="Layer_1" xmlns="http://www.w3.org/2000/svg" xmlns:xlink="http://www.w3.org/1999/xlink" x="0px" y="0px"
	 width="53.604px" height="66px" viewBox="0 0 53.604 66" enable-background="new 0 0 53.604 66" xml:space="preserve">
<g display="none">
	<g display="inline">
		<defs>
			<rect id="SVGID_1_" x="0" width="53.604" height="66"/>
		</defs>
		<clipPath id="SVGID_2_">
			<use xlink:href="#SVGID_1_"  overflow="visible"/>
		</clipPath>
		<path clip-path="url(#SVGID_2_)" d="M35.922,23.912c-0.854,0-1.546,0.692-1.546,1.546v29.213c0,0.853,0.69,1.546,1.546,1.546
			c0.854,0,1.545-0.693,1.545-1.546V25.458C37.467,24.604,36.775,23.912,35.922,23.912"/>
	</g>
	<g display="inline">
		<defs>
			<rect id="SVGID_3_" x="0" width="53.604" height="66"/>
		</defs>
		<clipPath id="SVGID_4_">
			<use xlink:href="#SVGID_3_"  overflow="visible"/>
		</clipPath>
		<path clip-path="url(#SVGID_4_)" d="M17.683,23.912c-0.854,0-1.546,0.692-1.546,1.546v29.213c0,0.853,0.692,1.546,1.546,1.546
			c0.854,0,1.545-0.693,1.545-1.546V25.458C19.228,24.604,18.537,23.912,17.683,23.912"/>
	</g>
	<g display="inline">
		<defs>
			<rect id="SVGID_5_" x="0" width="53.604" height="66"/>
		</defs>
		<clipPath id="SVGID_6_">
			<use xlink:href="#SVGID_5_"  overflow="visible"/>
		</clipPath>
		<path clip-path="url(#SVGID_6_)" d="M4.39,19.649V57.73c0,2.25,0.825,4.364,2.268,5.881C8.093,65.133,10.09,65.996,12.18,66
			h29.244c2.091-0.004,4.088-0.867,5.522-2.389c1.441-1.517,2.268-3.631,2.268-5.881V19.649c2.866-0.761,4.725-3.53,4.34-6.471
			c-0.384-2.94-2.889-5.14-5.854-5.14h-7.914V6.106c0.01-1.625-0.634-3.185-1.783-4.333C36.852,0.626,35.289-0.013,33.665,0H19.94
			c-1.625-0.013-3.188,0.626-4.338,1.773c-1.149,1.148-1.793,2.708-1.783,4.333v1.932H5.905c-2.966,0-5.471,2.2-5.854,5.14
			C-0.333,16.119,1.524,18.888,4.39,19.649 M41.424,62.908H12.18c-2.643,0-4.699-2.27-4.699-5.178V19.785h38.643V57.73
			C46.123,60.639,44.067,62.908,41.424,62.908 M16.91,6.106c-0.011-0.805,0.306-1.58,0.877-2.148c0.57-0.568,1.347-0.88,2.152-0.866
			h13.726c0.805-0.014,1.581,0.298,2.151,0.866c0.57,0.567,0.888,1.343,0.877,2.148v1.932H16.91V6.106z M5.905,11.129h41.795
			c1.536,0,2.782,1.246,2.782,2.782c0,1.537-1.246,2.782-2.782,2.782H5.905c-1.536,0-2.781-1.245-2.781-2.782
			C3.123,12.375,4.368,11.129,5.905,11.129"/>
	</g>
	<g display="inline">
		<defs>
			<rect id="SVGID_7_" x="0" width="53.604" height="66"/>
		</defs>
		<clipPath id="SVGID_8_">
			<use xlink:href="#SVGID_7_"  overflow="visible"/>
		</clipPath>
		<path clip-path="url(#SVGID_8_)" d="M26.802,23.912c-0.854,0-1.545,0.692-1.545,1.546v29.213c0,0.853,0.691,1.546,1.545,1.546
			c0.854,0,1.546-0.693,1.546-1.546V25.458C28.348,24.604,27.656,23.912,26.802,23.912"/>
	</g>
</g>
<g>
	<path d="M29.004,2.627v3.449c2.269,0.232,4.227,0.7,5.856,1.401c1.627,0.703,3.049,1.767,4.271,3.198
		c0.953,1.092,1.698,2.209,2.218,3.354c0.52,1.151,0.78,2.209,0.78,3.168c0,1.067-0.39,1.986-1.162,2.764
		c-0.779,0.772-1.723,1.162-2.833,1.162c-2.088,0-3.439-1.126-4.055-3.389c-0.701-2.659-2.399-4.427-5.075-5.301v13.291
		c2.633,0.728,4.737,1.386,6.306,1.985c1.568,0.597,2.964,1.455,4.202,2.591c1.317,1.169,2.339,2.574,3.05,4.2
		c0.72,1.628,1.074,3.413,1.074,5.354c0,2.426-0.571,4.696-1.715,6.818c-1.135,2.122-2.816,3.855-5.025,5.198
		c-2.219,1.344-4.844,2.14-7.892,2.392v7.962c0,1.256-0.122,2.175-0.374,2.747c-0.242,0.57-0.779,0.857-1.61,0.857
		c-0.772,0-1.309-0.234-1.613-0.702c-0.311-0.468-0.468-1.187-0.468-2.166v-8.63c-2.495-0.276-4.669-0.866-6.532-1.757
		c-1.863-0.894-3.423-2.011-4.671-3.345c-1.238-1.326-2.165-2.713-2.764-4.15c-0.597-1.438-0.892-2.852-0.892-4.236
		c0-1.022,0.4-1.941,1.196-2.764c0.796-0.823,1.794-1.23,2.99-1.23c0.959,0,1.767,0.226,2.423,0.667
		c0.667,0.45,1.126,1.074,1.38,1.889c0.569,1.75,1.073,3.084,1.497,4.012c0.425,0.928,1.077,1.775,1.94,2.537
		c0.859,0.772,2.012,1.353,3.432,1.76V32.854c-2.85-0.789-5.241-1.672-7.155-2.644c-1.917-0.96-3.476-2.346-4.663-4.131
		c-1.195-1.792-1.794-4.09-1.794-6.904c0-3.664,1.17-6.671,3.502-9.012c2.328-2.346,5.7-3.706,10.109-4.086v-3.39
		C24.939,0.894,25.615,0,26.948,0C28.319,0,29.004,0.877,29.004,2.627L29.004,2.627z M24.939,24.546V12.304
		c-1.792,0.536-3.187,1.239-4.192,2.112c-0.998,0.876-1.5,2.195-1.5,3.962c0,1.679,0.468,2.955,1.413,3.82
		C21.594,23.056,23.016,23.843,24.939,24.546L24.939,24.546z M29.004,34.031v14.001c2.147-0.425,3.802-1.29,4.98-2.59
		c1.17-1.3,1.759-2.808,1.759-4.532c0-1.854-0.574-3.292-1.715-4.296C32.894,35.591,31.212,34.733,29.004,34.031L29.004,34.031z
		 M29.004,34.031"/>
</g>
</svg>
