<?xml version="1.0" encoding="utf-8"?>
<!-- Generator: Adobe Illustrator 16.0.0, SVG Export Plug-In . SVG Version: 6.00 Build 0)  -->
<!DOCTYPE svg PUBLIC "-//W3C//DTD SVG 1.1//EN" "http://www.w3.org/Graphics/SVG/1.1/DTD/svg11.dtd">
<svg version="1.1" id="Layer_1" xmlns="http://www.w3.org/2000/svg" xmlns:xlink="http://www.w3.org/1999/xlink" x="0px" y="0px"
	 width="79px" height="78.603px" viewBox="0 0 79 78.603" enable-background="new 0 0 79 78.603" xml:space="preserve">
<g>
	<defs>
		<rect id="SVGID_1_" width="79" height="78.603"/>
	</defs>
	<clipPath id="SVGID_2_">
		<use xlink:href="#SVGID_1_"  overflow="visible"/>
	</clipPath>
	<path clip-path="url(#SVGID_2_)" fill="#EFC900" d="M72.914,49.328c-1.087,0-1.968,0.881-1.968,1.968v17.469
		c-0.004,3.259-2.644,5.9-5.902,5.903H9.838c-3.259-0.003-5.9-2.645-5.903-5.903V17.494c0.003-3.258,2.644-5.898,5.903-5.902h17.469
		c1.086,0,1.967-0.881,1.967-1.968c0-1.086-0.881-1.968-1.967-1.968H9.838C4.407,7.663,0.006,12.063,0,17.494v51.271
		c0.006,5.432,4.407,9.833,9.838,9.839h55.206c5.431-0.006,9.831-4.407,9.837-9.839V51.295
		C74.881,50.208,74.001,49.328,72.914,49.328"/>
	<path clip-path="url(#SVGID_2_)" fill="#EFC900" d="M74.102,2.593c-3.457-3.458-9.063-3.458-12.521,0L26.48,37.695
		c-0.242,0.241-0.415,0.539-0.505,0.866l-4.617,16.665c-0.19,0.683,0.003,1.415,0.504,1.917c0.502,0.501,1.234,0.693,1.917,0.505
		l16.665-4.617c0.328-0.091,0.626-0.265,0.866-0.505l35.102-35.103c3.452-3.46,3.452-9.061,0-12.521L74.102,2.593z M30.767,38.974
		l28.727-28.729l9.265,9.265L40.03,48.239L30.767,38.974z M28.915,42.688l7.402,7.402l-10.238,2.837L28.915,42.688z M73.629,14.641
		l-2.087,2.087l-9.266-9.266l2.087-2.087c1.921-1.921,5.035-1.921,6.956,0l2.31,2.309C75.546,9.607,75.546,12.719,73.629,14.641"/>
</g>
</svg>
