<?xml version="1.0" encoding="utf-8"?>
<!-- Generator: Adobe Illustrator 16.0.0, SVG Export Plug-In . SVG Version: 6.00 Build 0)  -->
<!DOCTYPE svg PUBLIC "-//W3C//DTD SVG 1.1//EN" "http://www.w3.org/Graphics/SVG/1.1/DTD/svg11.dtd">
<svg version="1.1" id="Layer_1" xmlns="http://www.w3.org/2000/svg" xmlns:xlink="http://www.w3.org/1999/xlink" x="0px" y="0px"
	 width="75.541px" height="80.999px" viewBox="0 0 75.541 80.999" enable-background="new 0 0 75.541 80.999" xml:space="preserve">
<path fill="#2C2CFD" d="M73.757,70.054c-0.284-0.59-0.992-0.838-1.582-0.553c-0.59,0.283-0.838,0.991-0.553,1.582
	c1.028,2.134,1.549,4.429,1.549,6.818v0.403c0,0.179-0.146,0.324-0.325,0.324H24.333c-0.179,0-0.325-0.146-0.325-0.324v-0.403
	c0-8.681,7.061-15.742,15.742-15.742h17.68c4.38,0,8.448,1.756,11.454,4.944c0.449,0.477,1.199,0.498,1.676,0.05
	c0.477-0.449,0.498-1.199,0.049-1.676c-3.232-3.428-7.53-5.415-12.192-5.661V53.86c0.39-0.373,0.76-0.766,1.103-1.183
	c0.42,0.208,0.889,0.334,1.403,0.372c0.085,0.007,0.17,0.01,0.255,0.01c1.292,0,2.55-0.724,3.568-2.058
	c0.901-1.185,1.504-2.747,1.608-4.183c0.189-2.572-1.258-4.439-3.742-4.947v-6.037c0-0.931,0.228-1.888,0.658-2.767
	c0.562-1.143,0.846-2.372,0.846-3.652c0-3.828-2.582-7.143-6.28-8.062c-0.727-0.181-1.492,0.177-1.819,0.852
	c-0.747,1.543-2.274,2.502-3.988,2.502h-8.774c-0.027,0-0.055,0.002-0.083,0.002v-4.743c0-5.64-4.589-10.23-10.231-10.23H25.49
	c-5.641,0-10.231,4.59-10.231,10.23v7.003c-2.594,0.453-4.114,2.349-3.92,4.982c0.212,2.885,2.265,5.953,4.818,6.22
	c0.698,1.852,1.77,3.504,3.12,4.874v1.647h-1.738C7.868,44.693,0,52.561,0,62.232v2.601c0,1.457,1.186,2.644,2.644,2.644h22.303
	c-2.083,2.949-3.309,6.547-3.309,10.425v0.402c0,1.486,1.209,2.696,2.695,2.696h48.513c1.486,0,2.695-1.21,2.695-2.696v-0.402
	C75.541,75.152,74.94,72.513,73.757,70.054 M34.319,49.564c-0.625-0.82-1.058-1.938-1.131-2.919
	c-0.093-1.268,0.432-2.066,1.562-2.385c0.033,2.304,0.641,4.47,1.689,6.36c-0.107,0.033-0.224,0.056-0.356,0.065
	C35.544,50.725,34.885,50.307,34.319,49.564 M56.046,59.789H41.133v-4.222c2.082,1.303,4.54,2.061,7.172,2.061h0.746
	c2.558,0,4.951-0.713,6.995-1.949V59.789z M63.991,46.646c-0.073,0.981-0.506,2.099-1.131,2.919
	c-0.566,0.742-1.228,1.162-1.765,1.122c-0.073-0.006-0.139-0.016-0.201-0.027c1.054-1.884,1.669-4.044,1.711-6.342
	C63.612,44.67,64.079,45.447,63.991,46.646 M52.028,27.079c2.365,0,4.575-1.258,5.801-3.254c2.333,0.834,3.917,3.054,3.917,5.592
	c0,0.915-0.204,1.793-0.604,2.608c-0.589,1.202-0.9,2.52-0.9,3.811v8.232c0,6.17-5.02,11.19-11.19,11.19h-0.746
	c-6.17,0-11.189-5.021-11.189-11.19V33.216c0-3.384,2.754-6.138,6.138-6.138H52.028z M25.49,12.107h7.449
	c3.317,0,6.158,2.064,7.311,4.976c-1.021-0.674-2.243-1.067-3.556-1.067H21.735c-1.312,0-2.534,0.393-3.555,1.067
	C19.333,14.171,22.174,12.107,25.49,12.107 M26.422,46.918c0.08,0.016,0.159,0.023,0.237,0.023c0.552,0,1.046-0.388,1.16-0.949
	c0.131-0.642-0.283-1.268-0.925-1.397c-4.167-0.847-7.526-3.904-8.765-7.979c-0.174-0.574-0.752-0.928-1.344-0.821
	c-0.069,0.012-0.13,0.02-0.188,0.025c-1.23,0.095-2.746-2.025-2.895-4.041c-0.114-1.551,0.697-2.401,2.41-2.527
	c0.084-0.007,0.165-0.007,0.25-0.001c0.327,0.023,0.65-0.092,0.89-0.316c0.241-0.224,0.377-0.538,0.377-0.866v-1.769v-3.807
	c0-2.265,1.842-4.107,4.106-4.107h14.959c2.264,0,4.106,1.842,4.106,4.107v2.578c-1.729,0.521-3.229,1.58-4.302,2.982
	c0-0.02,0.002-0.04,0.002-0.06c0-0.967-0.784-1.751-1.751-1.751c-0.968,0-1.752,0.784-1.752,1.751c0,0.968,0.784,1.752,1.752,1.752
	c0.302,0,0.587-0.076,0.835-0.212c-0.538,1.115-0.839,2.365-0.839,3.683v8.625c-2.594,0.453-4.114,2.347-3.92,4.979
	c0.062,0.848,0.298,1.736,0.665,2.567h-6.025c-2.106,0-3.819-1.713-3.819-3.818v-0.596C23.08,45.897,24.693,46.565,26.422,46.918
	 M26.729,65.106H2.644c-0.151,0-0.274-0.123-0.274-0.272v-2.602c0-8.364,6.805-15.169,15.169-15.169h1.921
	c0.671,2.692,3.108,4.693,6.005,4.693h7.277c0.116,0,0.233-0.004,0.35-0.011c0.88,0.855,1.884,1.313,2.91,1.313
	c0.084,0,0.169-0.003,0.255-0.01c0.564-0.041,1.078-0.188,1.531-0.436c0.306,0.376,0.631,0.735,0.975,1.076v6.126
	c-4.613,0.249-8.772,2.232-11.837,5.309C26.862,65.113,26.796,65.106,26.729,65.106"/>
<path fill="#2C2CFD" d="M23.681,26.241c0.967,0,1.751,0.784,1.751,1.752c0,0.967-0.784,1.751-1.751,1.751
	c-0.968,0-1.752-0.784-1.752-1.751C21.929,27.025,22.712,26.241,23.681,26.241"/>
<path fill="#2C2CFD" d="M33.061,36.328c0.383-0.53,0.263-1.271-0.268-1.653c-0.531-0.383-1.272-0.263-1.654,0.267
	c-0.446,0.618-1.165,0.988-1.924,0.988c-0.759,0-1.478-0.37-1.923-0.988c-0.383-0.53-1.123-0.65-1.654-0.268
	c-0.531,0.383-0.651,1.124-0.269,1.654c0.89,1.234,2.328,1.971,3.846,1.971C30.733,38.299,32.17,37.562,33.061,36.328"/>
<path fill="#2C2CFD" d="M45.309,19.029c-0.094,0.63,0.171,1.248,0.692,1.614c0.288,0.203,0.622,0.306,0.959,0.306
	c0.271,0,0.544-0.067,0.794-0.202l3.981-2.148c1.222,0.254,2.564,0.383,3.998,0.383c3.379,0,6.237-0.726,8.264-2.102
	c2.397-1.628,3.665-4.163,3.665-7.33c0-5.98-4.459-9.55-11.93-9.55c-3.106,0-5.804,0.643-7.8,1.861
	c-0.559,0.341-0.735,1.07-0.395,1.629c0.341,0.559,1.069,0.735,1.629,0.394c1.624-0.991,3.895-1.514,6.565-1.514
	c3.571,0,9.561,0.932,9.561,7.18c0,6.145-5.989,7.063-9.561,7.063c-1.425,0-2.735-0.142-3.894-0.419
	c-0.284-0.068-0.583-0.029-0.84,0.109l-3.14,1.694l0.415-2.764c0.057-0.376-0.071-0.756-0.342-1.022
	c-1.167-1.144-1.759-2.712-1.759-4.661c0-0.709,0.078-1.375,0.232-1.983c0.161-0.635-0.223-1.279-0.856-1.44
	c-0.633-0.162-1.279,0.221-1.44,0.856c-0.203,0.798-0.306,1.662-0.306,2.567c0,2.373,0.686,4.354,2.042,5.902L45.309,19.029z"/>
</svg>
