<?xml version="1.0" encoding="utf-8"?>
<!-- Generator: Adobe Illustrator 16.0.0, SVG Export Plug-In . SVG Version: 6.00 Build 0)  -->
<!DOCTYPE svg PUBLIC "-//W3C//DTD SVG 1.1//EN" "http://www.w3.org/Graphics/SVG/1.1/DTD/svg11.dtd">
<svg version="1.1" id="Layer_1" xmlns="http://www.w3.org/2000/svg" xmlns:xlink="http://www.w3.org/1999/xlink" x="0px" y="0px"
	 width="172.51px" height="161px" viewBox="0 0 172.51 161" enable-background="new 0 0 172.51 161" xml:space="preserve">
<g>
	<defs>
		<rect id="SVGID_1_" width="172.51" height="161"/>
	</defs>
	<clipPath id="SVGID_2_">
		<use xlink:href="#SVGID_1_"  overflow="visible"/>
	</clipPath>
	<path clip-path="url(#SVGID_2_)" fill="#00AA63" d="M117.882,68.995c0.763-0.001,1.493-0.304,2.032-0.843l32.531-32.526
		l-4.069-4.069l-30.494,30.497l-14.232-14.232l-4.065,4.066l16.265,16.264C116.388,68.691,117.119,68.994,117.882,68.995"/>
	<path clip-path="url(#SVGID_2_)" fill="#EFC900" d="M172.51,48.868C172.522,21.892,150.663,0.013,123.687,0
		C97.809-0.012,76.412,20.16,74.901,45.993H14.376C6.441,46.003,0.01,52.434,0,60.369v86.255C0.01,154.56,6.441,160.99,14.376,161
		h132.258c7.936-0.01,14.366-6.44,14.375-14.376V80.495h-0.178C168.37,71.683,172.513,60.466,172.51,48.868 M123.632,97.746
		c11.598,0.003,22.815-4.139,31.627-11.679V135.5L98.688,97.787l7.075-3.471C111.45,96.576,117.513,97.739,123.632,97.746
		 M123.632,5.741c23.818,0,43.128,19.309,43.128,43.127c0,23.819-19.31,43.128-43.128,43.128S80.505,72.687,80.505,48.868
		C80.531,25.062,99.824,5.769,123.632,5.741 M14.376,51.744h60.525c0.971,16.375,10.095,31.17,24.292,39.39l-18.648,9.14
		L5.75,61.327v-0.958C5.75,55.605,9.613,51.744,14.376,51.744 M62.777,97.505L5.75,135.664V67.811L62.777,97.505z M146.634,155.25
		H14.376c-4.763,0-8.626-3.862-8.626-8.626v-4.042l62.84-42.05l10.586,5.515c0.81,0.42,1.77,0.432,2.588,0.032l10.943-5.365
		l62.552,41.698v4.212C155.259,151.388,151.397,155.25,146.634,155.25"/>
	<rect x="51.753" y="143.749" clip-path="url(#SVGID_2_)" fill="#EFC900" width="80.505" height="5.75"/>
	<rect x="34.502" y="143.749" clip-path="url(#SVGID_2_)" fill="#EFC900" width="11.501" height="5.75"/>
	<rect x="63.254" y="132.248" clip-path="url(#SVGID_2_)" fill="#EFC900" width="57.503" height="5.751"/>
	<rect x="46.003" y="132.248" clip-path="url(#SVGID_2_)" fill="#EFC900" width="11.5" height="5.751"/>
</g>
</svg>
