<?xml version="1.0" encoding="utf-8"?>
<!-- Generator: Adobe Illustrator 16.0.0, SVG Export Plug-In . SVG Version: 6.00 Build 0)  -->
<!DOCTYPE svg PUBLIC "-//W3C//DTD SVG 1.1//EN" "http://www.w3.org/Graphics/SVG/1.1/DTD/svg11.dtd">
<svg version="1.1" id="Layer_1" xmlns="http://www.w3.org/2000/svg" xmlns:xlink="http://www.w3.org/1999/xlink" x="0px" y="0px"
	 width="68px" height="63.005px" viewBox="0 0 68 63.005" enable-background="new 0 0 68 63.005" xml:space="preserve">
<path fill="#EFC900" d="M41.618,11.766c-1.316-1.481-3.37-2.33-5.634-2.33c-4.043,0-7.656,2.761-8.056,6.157
	c-0.179,1.554,0.303,3.062,1.358,4.244c1.295,1.454,3.33,2.287,5.583,2.287c4.147,0,7.708-2.704,8.106-6.153
	C43.156,14.446,42.674,12.952,41.618,11.766 M39.734,15.593c-0.204,1.771-2.432,3.268-4.864,3.268c-1.304,0-2.481-0.448-3.148-1.196
	c-0.439-0.493-0.625-1.063-0.551-1.694c0.204-1.742,2.454-3.271,4.813-3.271c1.313,0,2.507,0.462,3.195,1.235
	C39.481,14.274,39.823,14.836,39.734,15.593"/>
<path fill="#EFC900" d="M40.076,46.575c-0.408-0.274-1.363-0.914-0.592-5.361c0.02-0.097,0.097-0.455,0.217-1.011
	c0.274-1.271,0.783-3.633,1.337-6.268c0.002-0.006,0.003-0.012,0.004-0.017c0.565-2.847,0.118-5.338-1.293-7.204
	c-1.273-1.683-3.291-2.715-5.679-2.906c-3.53-0.282-7.225,1.825-8.355,3.9c-0.523,0.919-0.273,1.665-0.076,2.03
	c0.245,0.452,0.601,0.705,0.861,0.89c0.402,0.285,1.341,0.951,0.449,5.388c-0.084,0.406-1.328,6.734-1.493,7.632
	c-0.001,0.006-0.002,0.013-0.003,0.02c-0.49,2.859-0.006,5.359,1.482,7.166c2.393,2.906,6.037,2.767,6.179,2.767
	c3.396,0,6.792-2.109,7.825-4.128c0.499-0.931,0.229-1.672,0.021-2.031C40.705,46.997,40.342,46.753,40.076,46.575 M37.842,33.274
	c-0.551,2.622-1.059,4.976-1.331,6.239c-0.186,0.86-0.224,1.034-0.236,1.106l-0.003,0.017c-0.829,4.764,0.01,6.848,1.196,8.015
	c-0.324,0.289-0.769,0.603-1.318,0.887c-1.081,0.557-2.28,0.845-3.288,0.793c-1.471-0.078-2.638-0.609-3.376-1.535
	c-0.861-1.076-1.143-2.656-0.817-4.568c0.178-0.967,1.424-7.296,1.476-7.548c0.001-0.006,0.003-0.01,0.004-0.016
	c0.953-4.74,0.169-6.846-0.988-8.043c0.332-0.281,0.785-0.581,1.342-0.851c1.096-0.529,2.302-0.786,3.309-0.706
	c1.466,0.116,2.62,0.677,3.333,1.621C37.978,29.784,38.218,31.371,37.842,33.274"/>
<path fill="#EFC900" d="M61.042,49.958C65.535,44.566,68,37.906,68,31.104c0-8.338-3.557-16.167-10.014-22.047
	C51.571,3.217,43.055,0,34,0c-9.053,0-17.571,3.217-23.987,9.057C3.556,14.937,0,22.766,0,31.104
	c0,8.337,3.556,16.167,10.013,22.046c6.415,5.841,14.933,9.058,23.987,9.058c5.661,0,11.24-1.292,16.186-3.742l11.85,4.437
	c0.187,0.069,0.38,0.104,0.571,0.104c0.404,0,0.801-0.151,1.108-0.434c0.452-0.418,0.632-1.056,0.462-1.647L61.042,49.958z
	 M50.658,55.156c-0.435-0.163-0.917-0.133-1.329,0.081c-4.64,2.425-9.942,3.707-15.329,3.707c-16.947,0-30.736-12.489-30.736-27.84
	c0-15.351,13.788-27.84,30.736-27.84c16.947,0,30.735,12.489,30.735,27.839c0,6.388-2.326,12.397-6.728,17.378
	c-0.368,0.418-0.499,0.994-0.346,1.529l2.486,8.7L50.658,55.156z"/>
</svg>
