<svg version="1.1" id="Layer_1" xmlns="http://www.w3.org/2000/svg" xmlns:xlink="http://www.w3.org/1999/xlink" x="0px" y="0px"
	 width="75px" height="75px" viewBox="0 0 75 75" fill="#efc900" xml:space="preserve">
<g>
	<defs>
		<rect id="SVGID_1_" width="75" height="75"/>
	</defs>
	<clipPath id="SVGID_2_">
		<use xlink:href="#SVGID_1_"  overflow="visible"/>
	</clipPath>
	<path clip-path="url(#SVGID_2_)" d="M72.336,10.346c-1.611-0.146-3.037,1.041-3.184,2.652l-0.388,4.258
		C62.179,6.913,50.747,0,37.5,0C23.25,0,10.691,8.133,4.458,20.34c-0.736,1.442-0.165,3.206,1.276,3.942s3.206,0.165,3.942-1.277
		C14.952,12.674,25.546,5.86,37.5,5.86c10.895,0,20.728,5.673,26.359,14.561l-4.177-2.983c-1.316-0.941-3.146-0.635-4.087,0.681
		c-0.939,1.317-0.635,3.147,0.681,4.087l12.668,9.047c1.856,1.323,4.417,0.112,4.62-2.118l1.422-15.605
		C75.135,11.917,73.947,10.493,72.336,10.346"/>
	<path clip-path="url(#SVGID_2_)" d="M0.012,61.471c-0.146,1.611,1.041,3.036,2.652,3.183c1.613,0.147,3.036-1.041,3.183-2.651
		l0.389-4.258C12.821,68.087,24.253,75,37.5,75c14.25,0,26.808-8.133,33.042-20.34c0.736-1.441,0.165-3.206-1.277-3.941
		c-1.439-0.736-3.204-0.165-3.94,1.276C60.048,62.326,49.453,69.141,37.5,69.141c-10.895,0-20.728-5.674-26.361-14.562l4.178,2.983
		c1.317,0.94,3.146,0.635,4.087-0.682c0.94-1.316,0.635-3.146-0.682-4.087L6.055,43.747c-1.834-1.31-4.415-0.135-4.62,2.118"/>
</g>
</svg>
