<svg version="1.1" id="Layer_1" xmlns="http://www.w3.org/2000/svg" xmlns:xlink="http://www.w3.org/1999/xlink" x="0px" y="0px"
	 width="490px" height="490px" viewBox="0 0 490 490" enable-background="new 0 0 490 490" xml:space="preserve">
<path fill="#FFFFFF" d="M484,455.2L366.2,337.4C395.4,301.8,413,256.2,413,206.5C413,92.5,320.5,0,206.5,0C92.4,0,0,92.5,0,206.5
	C0,320.5,92.4,413,206.5,413c49.7,0,95.2-17.5,130.8-46.7L455.1,484c8,8,20.9,8,28.9,0C492,476.1,492,463.1,484,455.2 M206.5,371.9
	C115.2,371.9,41,297.7,41,206.5C41,115.299,115.2,41,206.5,41C297.7,41,372,115.299,372,206.5C372,297.7,297.7,371.9,206.5,371.9"/>
</svg>
