<?xml version="1.0" encoding="utf-8"?>
<!-- Generator: Adobe Illustrator 16.0.0, SVG Export Plug-In . SVG Version: 6.00 Build 0)  -->
<!DOCTYPE svg PUBLIC "-//W3C//DTD SVG 1.1//EN" "http://www.w3.org/Graphics/SVG/1.1/DTD/svg11.dtd">
<svg version="1.1" id="Layer_1" xmlns="http://www.w3.org/2000/svg" xmlns:xlink="http://www.w3.org/1999/xlink" x="0px" y="0px"
	 width="58px" height="57.868px" viewBox="0 0 58 57.868" enable-background="new 0 0 58 57.868" xml:space="preserve">
<g>
	<defs>
		<rect id="SVGID_1_" y="0" width="58" height="57.868"/>
	</defs>
	<clipPath id="SVGID_2_">
		<use xlink:href="#SVGID_1_"  overflow="visible"/>
	</clipPath>
	<path clip-path="url(#SVGID_2_)" fill="#A6A6A6" d="M29,0C13.014,0,0,12.948,0,28.935c0,15.985,13.014,28.933,29,28.933
		c15.986,0,29-12.948,29-28.933C58,12.948,44.986,0,29,0"/>
	<path clip-path="url(#SVGID_2_)" fill="#FFFFFF" d="M29.595,12.948c-1.123,0-1.981,0.858-1.981,1.981V29l-6.805,6.803
		c-0.793,0.793-0.793,2.048,0,2.775c0.396,0.396,0.925,0.595,1.388,0.595c0.461,0,0.99-0.199,1.386-0.595l7.399-7.398
		c0.396-0.396,0.595-0.859,0.595-1.387V14.929C31.576,13.806,30.718,12.948,29.595,12.948"/>
</g>
</svg>
