<?xml version="1.0" encoding="utf-8"?>
<!-- Generator: Adobe Illustrator 16.0.0, SVG Export Plug-In . SVG Version: 6.00 Build 0)  -->
<!DOCTYPE svg PUBLIC "-//W3C//DTD SVG 1.1//EN" "http://www.w3.org/Graphics/SVG/1.1/DTD/svg11.dtd">
<svg version="1.1" id="Layer_1" xmlns="http://www.w3.org/2000/svg" xmlns:xlink="http://www.w3.org/1999/xlink" x="0px" y="0px"
	 width="172.659px" height="165.738px" viewBox="0 0 172.659 165.738" enable-background="new 0 0 172.659 165.738"
	 xml:space="preserve">
<rect x="92.954" y="19.559" fill="#FFFFFF" width="23.071" height="13.313"/>
<g>
	<defs>
		<rect id="SVGID_1_" width="172.659" height="165.738"/>
	</defs>
	<clipPath id="SVGID_2_">
		<use xlink:href="#SVGID_1_"  overflow="visible"/>
	</clipPath>
	<path clip-path="url(#SVGID_2_)" fill="#EFC900" d="M92.35,19.559h24.28c4.47,0,8.094-3.623,8.094-8.094
		c0-4.469-3.624-8.093-8.094-8.093H92.35c-4.47,0-8.094,3.624-8.094,8.093C84.255,15.936,87.88,19.559,92.35,19.559"/>
	<path clip-path="url(#SVGID_2_)" fill="#EFC900" d="M104.541,32.872c35.76,0,64.748,28.988,64.748,64.748
		c0,35.759-28.988,64.748-64.748,64.748S39.793,133.378,39.793,97.62C39.793,61.859,68.781,32.872,104.541,32.872"/>
	<path clip-path="url(#SVGID_2_)" fill="#FFFFFF" d="M104.541,48.678c27.029,0,48.941,21.912,48.941,48.941
		s-21.912,48.941-48.941,48.941S55.6,124.649,55.6,97.62S77.512,48.678,104.541,48.678"/>
	<path clip-path="url(#SVGID_2_)" fill="#EFC900" d="M104.541,90.513c3.926,0,7.106,3.182,7.106,7.106s-3.181,7.106-7.106,7.106
		c-3.925,0-7.106-3.182-7.106-7.106S100.616,90.513,104.541,90.513"/>
	<path clip-path="url(#SVGID_2_)" fill="#424242" d="M172.326,90.844c-1.551-15.592-8.518-30.293-19.616-41.393
		c-9.486-9.486-21.097-15.581-33.313-18.291v-8.569c4.99-1.242,8.699-5.757,8.699-11.127C128.097,5.143,122.953,0,116.631,0H92.35
		c-6.322,0-11.466,5.143-11.466,11.465c0,5.369,3.709,9.885,8.698,11.127v8.592c-12.178,2.722-23.75,8.809-33.209,18.268
		c-2.07,2.069-3.979,4.241-5.726,6.498c-0.084-0.007-0.169-0.013-0.255-0.013H26.361c-1.863,0-3.373,1.51-3.373,3.372
		c0,1.862,1.51,3.372,3.373,3.372h19.698c-2.473,4.14-4.466,8.488-5.984,12.962H3.372C1.511,75.643,0,77.153,0,79.015
		c0,1.863,1.511,3.372,3.372,3.372h34.797c-0.972,4.267-1.53,8.609-1.674,12.963H21.583c-1.862,0-3.372,1.51-3.372,3.372
		s1.51,3.372,3.372,3.372h15.02c0.285,4.365,0.987,8.707,2.106,12.962H16.862c-1.863,0-3.372,1.51-3.372,3.372
		c0,1.863,1.509,3.373,3.372,3.373h23.999c3.308,8.751,8.478,16.952,15.512,23.987c11.111,11.11,25.826,18.078,41.435,19.62
		c2.228,0.22,4.457,0.329,6.684,0.329c13.159,0,26.151-3.809,37.176-10.987c1.56-1.017,2.002-3.105,0.985-4.666
		s-3.105-2.002-4.667-0.986c-24.131,15.714-56.449,12.316-76.844-8.078c-23.93-23.931-23.93-62.868,0-86.799
		c23.931-23.93,62.868-23.93,86.799,0c20.368,20.368,23.784,52.658,8.122,76.778c-1.014,1.563-0.569,3.651,0.992,4.665
		c1.563,1.015,3.65,0.57,4.665-0.991C170.087,121.785,173.854,106.22,172.326,90.844 M87.629,11.466
		c0-2.603,2.118-4.721,4.721-4.721h24.281c2.603,0,4.721,2.118,4.721,4.721c0,2.604-2.118,4.721-4.721,4.721h-0.605h-23.07H92.35
		C89.747,16.187,87.629,14.069,87.629,11.466 M96.327,30.025v-7.093h16.325v7.08C107.231,29.368,101.747,29.372,96.327,30.025"/>
	<path clip-path="url(#SVGID_2_)" fill="#424242" d="M150.327,140.03c-0.892,0-1.758,0.361-2.385,0.988
		c-0.631,0.627-0.988,1.497-0.988,2.385c0,0.887,0.357,1.757,0.988,2.384c0.627,0.631,1.494,0.988,2.385,0.988
		c0.887,0,1.753-0.357,2.384-0.988c0.627-0.627,0.987-1.497,0.987-2.384c0-0.888-0.359-1.758-0.987-2.385
		C152.08,140.391,151.213,140.03,150.327,140.03"/>
	<path clip-path="url(#SVGID_2_)" fill="#424242" d="M104.541,45.305c-28.846,0-52.313,23.468-52.313,52.314
		c0,28.846,23.468,52.313,52.313,52.313c28.847,0,52.314-23.468,52.314-52.313C156.855,68.773,133.388,45.305,104.541,45.305
		 M104.541,143.189c-25.126,0-45.569-20.442-45.569-45.569c0-25.126,20.443-45.57,45.569-45.57c25.128,0,45.569,20.443,45.569,45.57
		C150.11,122.747,129.669,143.189,104.541,143.189"/>
	<path clip-path="url(#SVGID_2_)" fill="#424242" d="M125.873,71.519L109.17,88.221c-1.396-0.69-2.968-1.081-4.629-1.081
		s-3.231,0.391-4.629,1.081l-7.475-7.475c-1.317-1.317-3.452-1.317-4.77,0s-1.317,3.452,0,4.769l7.476,7.476
		c-0.691,1.396-1.081,2.967-1.081,4.629c0,5.777,4.7,10.479,10.479,10.479s10.479-4.701,10.479-10.479
		c0-1.662-0.39-3.232-1.081-4.629l16.213-16.213l0.49-0.49c1.316-1.317,1.316-3.453,0-4.769
		C129.325,70.202,127.19,70.202,125.873,71.519 M104.541,101.354c-2.06,0-3.734-1.675-3.734-3.734s1.675-3.734,3.734-3.734
		s3.734,1.675,3.734,3.734S106.601,101.354,104.541,101.354"/>
	<path clip-path="url(#SVGID_2_)" fill="#424242" d="M140.598,94.289h-3.125c-1.862,0-3.372,1.51-3.372,3.372
		s1.51,3.372,3.372,3.372h3.125c1.862,0,3.372-1.51,3.372-3.372S142.46,94.289,140.598,94.289"/>
	<path clip-path="url(#SVGID_2_)" fill="#424242" d="M71.609,94.207h-3.125c-1.861,0-3.372,1.51-3.372,3.372
		s1.511,3.372,3.372,3.372h3.125c1.862,0,3.372-1.51,3.372-3.372S73.471,94.207,71.609,94.207"/>
	<path clip-path="url(#SVGID_2_)" fill="#424242" d="M104.582,68.06c1.862,0,3.372-1.51,3.372-3.372v-3.125
		c0-1.862-1.51-3.372-3.372-3.372c-1.861,0-3.372,1.51-3.372,3.372v3.125C101.21,66.55,102.721,68.06,104.582,68.06"/>
	<path clip-path="url(#SVGID_2_)" fill="#424242" d="M104.5,127.179c-1.862,0-3.372,1.51-3.372,3.372v3.124
		c0,1.863,1.51,3.373,3.372,3.373s3.373-1.51,3.373-3.373v-3.124C107.873,128.689,106.362,127.179,104.5,127.179"/>
	<path clip-path="url(#SVGID_2_)" fill="#424242" d="M3.372,115.055c-0.887,0-1.757,0.36-2.384,0.988
		C0.361,116.67,0,117.541,0,118.427c0,0.891,0.36,1.757,0.988,2.384c0.628,0.628,1.497,0.988,2.384,0.988s1.757-0.36,2.384-0.988
		c0.627-0.627,0.989-1.497,0.989-2.384s-0.361-1.757-0.989-2.384C5.129,115.416,4.259,115.055,3.372,115.055"/>
</g>
</svg>
