<svg version="1.1" id="Layer_1" xmlns="http://www.w3.org/2000/svg" xmlns:xlink="http://www.w3.org/1999/xlink" x="0px" y="0px"
	 width="410.755px" height="482.9px" viewBox="0 0 410.755 482.9" enable-background="new 0 0 410.755 482.9" xml:space="preserve">
<path fill="#FFFFFF" d="M203.627,260.2h1.6h0.6h1c29.3-0.5,53-10.799,70.5-30.5c38.5-43.4,32.101-117.8,31.4-124.9
	c-2.5-53.3-27.7-78.8-48.5-90.7c-15.5-8.9-33.601-13.7-53.8-14.1h-0.7h-0.4h-0.6c-11.1,0-32.9,1.8-53.8,13.7
	c-21,11.9-46.6,37.4-49.1,91.1c-0.7,7.1-7.1,81.5,31.4,124.9C150.627,249.401,174.327,259.7,203.627,260.2 M128.527,107.3
	c0-0.3,0.1-0.6,0.1-0.8c3.3-71.7,54.2-79.4,76-79.4h0.4h0.8c27,0.6,72.9,11.6,76,79.4c0,0.3,0,0.6,0.101,0.8
	c0.1,0.7,7.1,68.7-24.7,104.5c-12.601,14.2-29.4,21.2-51.5,21.4h-0.5h-0.5c-22-0.2-38.9-7.2-51.4-21.4
	C121.627,176.2,128.427,107.9,128.527,107.3"/>
<path fill="#FFFFFF" d="M410.727,383.599v-0.3c0-0.8-0.1-1.599-0.1-2.5c-0.6-19.8-1.9-66.099-45.299-80.898
	c-0.301-0.102-0.701-0.2-1-0.302c-45.102-11.5-82.602-37.5-83-37.8c-6.102-4.3-14.5-2.8-18.801,3.3
	c-4.301,6.102-2.801,14.5,3.301,18.802c1.699,1.198,41.5,28.898,91.299,41.698c23.3,8.302,25.9,33.2,26.6,56c0,0.9,0,1.7,0.102,2.5
	c0.099,9-0.5,22.9-2.102,30.9c-16.199,9.201-79.699,41-176.3,41c-96.2,0-160.1-31.9-176.4-41.099c-1.6-8-2.3-21.901-2.1-30.901
	c0-0.799,0.1-1.599,0.1-2.5c0.7-22.799,3.3-47.7,26.6-56c49.8-12.799,89.6-40.599,91.3-41.7c6.1-4.3,7.6-12.7,3.3-18.8
	c-4.3-6.099-12.7-7.599-18.8-3.299c-0.4,0.299-37.7,26.299-83,37.799c-0.4,0.1-0.7,0.201-1,0.3c-43.4,14.901-44.7,61.2-45.3,80.901
	c0,0.898,0,1.7-0.1,2.5v0.299c-0.1,5.201-0.2,31.901,5.1,45.3c1,2.602,2.8,4.8,5.2,6.3c3,2,74.9,47.802,195.2,47.802
	c120.301,0,192.199-45.901,195.199-47.802c2.301-1.5,4.2-3.698,5.2-6.3C410.927,415.5,410.828,388.799,410.727,383.599"/>
</svg>
